<?xml version="1.0" encoding="UTF-8"?><svg id="Layer_2" xmlns="http://www.w3.org/2000/svg" xmlns:xlink="http://www.w3.org/1999/xlink" viewBox="0 0 519.05 513.36"><defs><style>.cls-1,.cls-2{fill:none;}.cls-3{clip-path:url(#clippath);}.cls-4{fill:#e0b127;}.cls-4,.cls-2{stroke:#000;stroke-miterlimit:10;stroke-width:4px;}.cls-5{clip-path:url(#clippath-1);}</style><clipPath id="clippath"><polygon class="cls-1" points="207.19 370.21 419.11 352.32 519.05 352.32 400.27 504.42 152.67 513.36 179.46 459.41 199.34 461.48 207.19 370.21"/></clipPath><clipPath id="clippath-1"><circle class="cls-1" cx="246.91" cy="246.91" r="244.91"/></clipPath></defs><g id="Layer_1-2"><path d="M419.11,176.28c-.08-1.04-.86-1.56-1.58-2.09-1.55-1.13-3.27-1.95-5.02-2.7-11.43-4.85-23.32-8.16-35.5-10.49-10.52-2.01-21.12-3.07-31.82-2.43-7.49,.45-14.9,1.63-22.16,3.58-.55,.15-.8,.04-1.09-.42-2.36-3.87-4.42-7.86-5.35-12.35-.32-1.52-.26-3.05-.34-4.57-.3-5.68-2.52-10.27-7.45-13.41-9.26-5.9-19.12-10.55-29.37-14.43-10.8-4.09-21.64-8.05-32.84-10.89-8.54-2.17-17.19-3.83-26.04-4.07-.95-.03-1.9,0-2.84,.21-.56,.13-1.27,.18-1.4,.84-.15,.77,.61,1,1.13,1.28,1.46,.78,3.05,1.28,4.62,1.79,9.32,3.04,18.84,5.39,28.24,8.16,7.87,2.32,15.63,4.91,22.92,8.76,4.49,2.37,8.35,5.5,11.53,9.47,3.68,4.58,7.57,8.99,10.64,14.02,3.22,5.28,4.97,11.07,5.95,17.13,.06,.36,.21,.78-.41,.79-2.1,.03-4.03,.92-6.06,1.29-4.32,.79-8.65,1.49-13.06,1.47-.26,0-.76-.22-.74,.34,.02,.41-.17,.95,.41,1.19,2.1,.87,4.2,1.75,6.3,2.63,.39,.16,.73-.08,1.07-.21,.43-.17,.85-.26,1.32-.13,.84,.22,1.81,.2,2.51,.63,.84,.51,.12,1.55,.28,2.35,.23,1.12,.61,1.97,1.61,2.63,1.49,.98,2.98,1.97,4.68,2.55,2.72,.93,4.96,2.54,7.08,4.45,6.44,5.79,14.07,8.71,22.71,8.93,1.37,.03,2.82,.14,4.09-.63,.33-.2,.55,.03,.79,.15,1.91,.96,3.85,.81,5.78,.09,1.44-.54,2.36-.2,2.98,1.22,.25,.57,.65,1.08,1.19,1.16,.59,.09,.82-.62,1.07-1.06,1.03-1.82,.97-3.73-.15-5.42-.92-1.38-.87-2.71-.48-4.13,.83-2.98-.29-5.26-3.24-6.49q-1.76-.73-.3-1.88c7.16-5.59,15.35-8.29,24.38-8.67,13.41-.57,26.43,1.78,39.33,5.13,4.57,1.18,9.07,2.56,13.55,4.04,.34,.11,.66,.36,1.1,.19Z"/><g><path d="M95.12,283.74c0-34.6,0-69.21,0-103.81,0-6.3,.05-12.61-.04-18.91-.02-1.35,.57-1.96,2.06-2.44,5.75-1.85,11.45-2.15,17.24-.09,1.45,.52,1.96,1.18,1.96,2.51-.09,23.88-.13,47.76-.13,71.64,0,26.51,.07,53.02,.08,79.53,.01,22.09,.55,44.2-.18,66.27-.63,19.12-2.65,38.2-4.18,57.29-.57,7.12-1.5,14.23-2.26,21.34-.2,1.86-1.16,2.51-3.83,2.54-2.66,.04-3.77-.56-3.98-2.34-1.07-9.11-2.35-18.2-3.09-27.32-1.38-17.14-2.47-34.3-3.59-51.46-.23-3.51-.06-7.03-.07-10.54,0-28.07,0-56.15,0-84.22Zm17.2,102.78v-7.43h-13.07v7.43h13.07Z"/><path d="M152.63,294.28c0,26.41,.14,52.82-.08,79.22-.08,9.66-.93,19.32-1.54,28.98-.46,7.33-.99,14.65-1.69,21.97-.92,9.7-2.04,19.38-3.06,29.07-.12,1.13-.18,2.27-.32,3.4-.22,1.83-1.51,2.69-4.03,2.7-2.32,.01-3.65-.82-3.86-2.62-1.06-9.29-2.27-18.56-3.05-27.87-1.2-14.24-2.14-28.49-3.11-42.74-.33-4.83-.57-9.66-.58-14.49-.06-29.03-.03-58.05-.03-87.08,0-31.98,.02-63.96-.04-95.95,0-1.51,.59-2.23,2.22-2.74,5.73-1.8,11.42-2.16,17.16-.06,1.39,.51,2.05,1.13,2.05,2.53-.06,22.71-.04,45.42-.04,68.13,0,12.52,0,25.04,0,37.55Zm-17.22,92.31h13.07v-7.43h-13.07v7.43Z"/><path d="M44,253.55c0,33.64,.37,67.28-.14,100.91-.3,19.82-1.84,39.62-3.09,59.41-.9,14.11-2.26,28.19-3.4,42.28-.19,2.33-1.49,3.47-4,3.47-2.34,0-3.6-1.12-3.8-3.36-1.19-13.8-2.57-27.58-3.52-41.39-1.07-15.41-2.34-30.85-2.5-46.28-.52-49.31-.62-98.63-.77-147.95-.11-36.04,0-72.09-.07-108.13,0-1.95,.61-2.88,2.23-3.53,5.73-2.32,11.43-2.73,17.18-.07,1.41,.65,2.02,1.49,2.02,3.27-.06,29.4-.05,58.81-.05,88.21,0,12.69,.02,25.38,.03,38.06,0,5.03,0,10.06,0,15.09-.04,0-.07,0-.11,0Zm-17.04,132.96c4.1,0,8.02,.02,11.94-.03,.38,0,1.06-.46,1.07-.73,.09-2.2,.05-4.4,.05-6.66h-13.06v7.42Z"/><path d="M80.2,265.3c0,23.41,.29,46.83-.09,70.23-.33,20.39-1.16,40.79-2.27,61.14-1.07,19.51-2.79,38.97-4.26,58.45-.11,1.45,.12,3.13-1.56,3.9-1.92,.88-3.76,.83-5.46-.44-.45-.34-.72-1.26-.78-1.94-.96-11.03-1.97-22.06-2.76-33.1-.88-12.2-1.61-24.41-2.3-36.62-.33-5.83-.44-11.68-.61-17.53-.41-14-1.05-27.99-1.13-41.99-.18-31.03-.06-62.07-.07-93.11,0-30.18,.02-60.37-.03-90.55,0-1.8,.42-2.76,1.93-3.44,5.96-2.69,11.86-3.2,17.82,0,1.24,.67,1.6,1.51,1.6,3.02-.05,36.58-.06,73.16-.07,109.74,0,4.08,0,8.16,0,12.24,.02,0,.03,0,.05,0Zm-16.43,113.85v7.43h13.07v-7.43h-13.07Z"/><path d="M167.49,305.13c0-32.19,0-64.39-.04-96.58,0-1.5,.44-2.26,2.06-2.82,5.94-2.08,11.8-2.43,17.7,.08,1.17,.5,1.66,1.12,1.65,2.37-.08,20.44-.11,40.88-.11,61.32,0,32,.13,64.01,0,96.01-.03,8.87-.73,17.73-1.2,26.59-.32,6.05-.64,12.1-1.18,18.14-1.25,14.02-2.63,28.03-3.95,42.04-.14,1.46-.44,2.93-.37,4.39,.08,1.74-.99,2.35-2.59,2.73-3.06,.74-5.12-.47-5.36-3.23-1.75-19.94-3.73-39.87-5.15-59.83-.91-12.82-1.23-25.68-1.4-38.52-.23-17.56-.06-35.13-.06-52.7Zm4.07,74.03v7.43h13.07v-7.43h-13.07Z"/></g><circle class="cls-2" cx="246.91" cy="246.91" r="244.91"/><path d="M463.39,212.32c-9.08,5.47-18.12,11.01-27.26,16.37-4.37,2.56-9.82,3.92-13.19,7.37-4.82,4.94-8.25,11.25-12.11,17.09-1.01,1.53-1.38,3.47-2.02,5.17-2.85,.44-5.52,.85-8.97,1.38,1.38-3,2.61-5.77,3.91-8.51,1.89-3.99,.56-6.99-3.57-7.51-8.31-1.04-16.7-1.37-25.06-2.06-2.78-.23-5.54-.64-8.3-1.03-8.27-1.17-16.53-2.36-24.79-3.59-1.58-.24-3.13-.73-4.89-1.15,15.21-2.17,30-4.89,44.91-6.16,7.51-.64,15.23,1.45,22.87,2.11,1.71,.15,3.98,.05,5.15-.94,3.08-2.6,5.57-6.11,10.03-2.17,.31,.27,1.75-.37,2.41-.9,11.78-9.43,26.26-12.45,40.07-17.08l.81,1.61Z"/><g class="cls-3"><g class="cls-5"><g><path class="cls-4" d="M490.81,387.86c-24.27-22.6-62.18-25.62-93.62-7.46-12.96,7.49-25.89,15.02-42.14,19.1-18.59,4.68-36.69,3.12-54.32-3.01-11-3.82-21.77-7.97-32.86-11.66-23.86-7.93-45.33-4.73-64.66,6.47-4.91,2.84-9.41,6.07-13.71,9.36-14.82,11.32-33.84,13.43-52.95,5.15-7.12-3.08-14.08-6.74-19.74-11-25.16-18.95-53.36-15.58-77.16-2-4.71,2.69-8.61,6.07-12.88,9.12,.53,.55,1.07,1.1,1.6,1.65,1.72-.7,3.86-1.15,5.09-2.14,8.5-6.9,18.57-12.2,31.18-15.04,16.48-3.71,30.84-1.25,43.78,7.11,8.47,5.47,17.17,11.01,26.88,15.27,19.16,8.4,38.2,6.61,54.47-4.02,6.73-4.4,13.09-9.12,20.27-13.14,16.98-9.51,35.98-10.47,55.93-4.18,8.76,2.76,17.29,5.96,25.63,9.31,34.52,13.86,65.83,9.9,95.14-6.49,7.39-4.13,14.69-8.45,22.75-11.88,26.85-11.45,53.54-8.25,74.89,8.47,1.33,1.04,3.53,1.55,5.33,2.3,.37-.43,.73-.85,1.1-1.28Z"/><path class="cls-4" d="M490.29,421.8c-14.23-12.02-31.32-19.99-54.69-18.81-15.14,.76-27.59,5.69-39.25,11.87-9.06,4.8-17.88,9.88-27.53,14.05-22.1,9.53-45.31,10.13-69.03,1.67-8.57-3.05-17.05-6.23-25.6-9.32-28.94-10.44-51.98-8.39-75.56,6.75-3.49,2.24-6.75,4.65-9.99,7.06-15.3,11.41-33.41,13.35-52.9,4.9-7.7-3.34-14.73-7.66-21.21-12.13-12.24-8.45-26.07-13.32-43.49-11.69-15.99,1.49-35.59,10.69-43.27,21.79,1.62-.65,3.38-1.17,4.82-1.97,7.56-4.2,14.39-9.21,22.66-12.57,19.35-7.87,38.09-5.41,54.47,5.58,7.45,5,15.41,9.86,24.12,13.68,20.16,8.85,39.29,7.12,56.23-4.17,6.5-4.33,12.7-8.93,19.76-12.79,17.36-9.49,36.52-10.34,56.62-3.6,8.26,2.77,16.4,5.72,24.41,8.82,36.07,13.94,63.8,10.37,95.14-6.29,7.91-4.21,15.44-8.87,23.98-12.38,26.73-11,53.5-7.51,74.2,9.07,1.24,1,3.35,1.48,5.06,2.2,.35-.57,.69-1.14,1.04-1.72Z"/><path class="cls-4" d="M489.87,456.12c-14.26-11.87-31.07-20.09-54.56-18.9-15.19,.77-27.57,5.7-39.35,11.78-10.83,5.59-21.44,11.55-33.14,16.16-20.29,8-41.61,7.2-62.66,.03-9.07-3.09-17.88-6.57-26.85-9.81-28.08-10.16-50.71-8.31-73.96,6.1-3.54,2.2-6.9,4.55-10.1,6.99-17.02,12.94-36.17,14.52-57.57,4.34-5.75-2.74-11.29-5.91-15.99-9.48-25.04-18.97-52.96-15.5-76.63-2.3-4.92,2.74-8.94,6.25-13.37,9.4,.57,.56,1.15,1.13,1.72,1.69,1.72-.73,3.85-1.22,5.09-2.24,8.46-6.93,18.58-12.25,31.17-15.05,16.18-3.6,30.51-1.19,43.36,6.94,8.57,5.42,17.16,11.03,26.85,15.33,19.33,8.58,38.62,6.83,55.04-3.96,6.55-4.3,12.68-8.96,19.71-12.85,17.43-9.67,36.73-10.92,57.16-4.02,12.36,4.17,24.35,8.91,36.83,12.89,24.79,7.9,48.42,5.52,70.35-4.35,10.74-4.83,20.44-10.75,30.9-15.89,28.3-13.9,56.52-11.38,80.14,6.91,1.18,.91,3.09,1.38,4.66,2.05,.41-.59,.81-1.18,1.22-1.77Z"/></g></g></g></g></svg>