<svg aria-hidden="true" style="position: absolute; width: 0; height: 0; overflow: hidden;" version="1.1" xmlns="http://www.w3.org/2000/svg" xmlns:xlink="http://www.w3.org/1999/xlink">
<defs>
<symbol id="icon-location-pin" viewBox="0 0 20 20">
<path d="M10 2.009c-2.762 0-5 2.229-5 4.99 0 4.774 5 11 5 11s5-6.227 5-11c0-2.76-2.238-4.99-5-4.99zM10 9.76c-1.492 0-2.7-1.209-2.7-2.7s1.208-2.7 2.7-2.7c1.49 0 2.699 1.209 2.699 2.7s-1.209 2.7-2.699 2.7z"></path>
</symbol>
<symbol id="icon-clock" viewBox="0 0 20 20">
<path d="M10 0.4c-5.303 0-9.601 4.298-9.601 9.6 0 5.303 4.298 9.601 9.601 9.601 5.301 0 9.6-4.298 9.6-9.601s-4.299-9.6-9.6-9.6zM9.999 17.6c-4.197 0-7.6-3.402-7.6-7.6 0-4.197 3.402-7.6 7.6-7.6 4.197 0 7.601 3.402 7.601 7.6 0 4.197-3.404 7.6-7.601 7.6zM11 9.33v-5.33h-2v6.245l-3.546 2.048 1 1.732 4.115-2.377c0.238-0.137 0.431-0.473 0.431-0.748v-0.168l4.24-4.166c-0.198-0.271-0.411-0.529-0.647-0.766l-3.593 3.53z"></path>
</symbol>
<symbol id="icon-user-group" viewBox="0 0 20 20">
<path d="M7 8c-2.209 0-4-1.791-4-4s1.791-4 4-4v0c2.209 0 4 1.791 4 4s-1.791 4-4 4v0zM7 9c2.15 0 4.2 0.4 6.1 1.090l-1.1 5.91h-1.25l-0.75 4h-6l-0.75-4h-1.25l-1.1-5.91c1.813-0.684 3.909-1.083 6.097-1.090h0.003zM15.31 9.17c1.32 0.18 2.59 0.48 3.8 0.92l-1.11 5.91h-1.25l-0.75 4h-3.96l0.37-2h1.25l1.65-8.83zM13 0c0.010-0 0.022-0 0.034-0 2.209 0 4 1.791 4 4s-1.791 4-4 4c-0.49 0-0.958-0.088-1.392-0.249l0.028 0.009c0.832-1.017 1.336-2.329 1.336-3.76s-0.504-2.743-1.344-3.771l0.008 0.011c0.43-0.14 0.86-0.24 1.33-0.24z"></path>
</symbol>
<symbol id="icon-education" viewBox="0 0 20 20">
<path d="M3.33 8l6.67 4 10-6-10-6-10 6h10v2h-6.67zM0 8v8l2-2.22v-4.58l-2-1.2zM10 20l-7-4.2v-6l7 4.2 7-4.2v6l-7 4.2z"></path>
</symbol>
<symbol id="icon-user-plus" viewBox="0 0 32 32">
<path d="M12 23c0-4.726 2.996-8.765 7.189-10.319 0.509-1.142 0.811-2.411 0.811-3.681 0-4.971 0-9-6-9s-6 4.029-6 9c0 3.096 1.797 6.191 4 7.432v1.649c-6.784 0.555-12 3.888-12 7.918h12.416c-0.271-0.954-0.416-1.96-0.416-3z"></path>
<path d="M23 14c-4.971 0-9 4.029-9 9s4.029 9 9 9c4.971 0 9-4.029 9-9s-4.029-9-9-9zM28 24h-4v4h-2v-4h-4v-2h4v-4h2v4h4v2z"></path>
</symbol>
<symbol id="icon-earth" viewBox="0 0 32 32">
<path d="M16 0c-8.837 0-16 7.163-16 16s7.163 16 16 16 16-7.163 16-16-7.163-16-16-16zM16 30c-1.967 0-3.84-0.407-5.538-1.139l7.286-8.197c0.163-0.183 0.253-0.419 0.253-0.664v-3c0-0.552-0.448-1-1-1-3.531 0-7.256-3.671-7.293-3.707-0.188-0.188-0.442-0.293-0.707-0.293h-4c-0.552 0-1 0.448-1 1v6c0 0.379 0.214 0.725 0.553 0.894l3.447 1.724v5.871c-3.627-2.53-6-6.732-6-11.489 0-2.147 0.484-4.181 1.348-6h3.652c0.265 0 0.52-0.105 0.707-0.293l4-4c0.188-0.188 0.293-0.442 0.293-0.707v-2.419c1.268-0.377 2.61-0.581 4-0.581 2.2 0 4.281 0.508 6.134 1.412-0.13 0.109-0.256 0.224-0.376 0.345-1.133 1.133-1.757 2.64-1.757 4.243s0.624 3.109 1.757 4.243c1.139 1.139 2.663 1.758 4.239 1.758 0.099 0 0.198-0.002 0.297-0.007 0.432 1.619 1.211 5.833-0.263 11.635-0.014 0.055-0.022 0.109-0.026 0.163-2.541 2.596-6.084 4.208-10.004 4.208z"></path>
</symbol>
<symbol id="icon-user" viewBox="0 0 20 20">
<path d="M5 5c0-2.761 2.239-5 5-5s5 2.239 5 5v0 2c0 2.761-2.239 5-5 5s-5-2.239-5-5v0-2zM0 16.68c2.86-1.685 6.301-2.68 9.974-2.68 0.009 0 0.018 0 0.027 0h-0.001c3.64 0 7.060 0.97 10 2.68v3.32h-20v-3.32z"></path>
</symbol>
<symbol id="icon-envelope" viewBox="0 0 20 20">
<path d="M18 2c1.105 0 2 0.895 2 2v0 12c0 1.105-0.895 2-2 2v0h-16c-1.105 0-2-0.895-2-2v0-12c0-1.1 0.9-2 2-2h16zM13.63 11.1l6.37 4.9v-2l-5.12-3.9 5.12-4.1v-2l-10 8-10-8v2l5.12 4.1-5.12 3.9v2l6.37-4.9 3.63 2.9 3.63-2.9z"></path>
</symbol>

</defs>
</svg>