<svg aria-hidden="true" style="position: absolute; width: 0; height: 0; overflow: hidden;" version="1.1" xmlns="http://www.w3.org/2000/svg" xmlns:xlink="http://www.w3.org/1999/xlink">
<defs>
<symbol id="icon-location-pin" viewBox="0 0 20 20">
<path d="M10 2.009c-2.762 0-5 2.229-5 4.99 0 4.774 5 11 5 11s5-6.227 5-11c0-2.76-2.238-4.99-5-4.99zM10 9.76c-1.492 0-2.7-1.209-2.7-2.7s1.208-2.7 2.7-2.7c1.49 0 2.699 1.209 2.699 2.7s-1.209 2.7-2.699 2.7z"></path>
</symbol>
<symbol id="icon-clock" viewBox="0 0 20 20">
<path d="M10 0.4c-5.303 0-9.601 4.298-9.601 9.6 0 5.303 4.298 9.601 9.601 9.601 5.301 0 9.6-4.298 9.6-9.601s-4.299-9.6-9.6-9.6zM9.999 17.6c-4.197 0-7.6-3.402-7.6-7.6 0-4.197 3.402-7.6 7.6-7.6 4.197 0 7.601 3.402 7.601 7.6 0 4.197-3.404 7.6-7.601 7.6zM11 9.33v-5.33h-2v6.245l-3.546 2.048 1 1.732 4.115-2.377c0.238-0.137 0.431-0.473 0.431-0.748v-0.168l4.24-4.166c-0.198-0.271-0.411-0.529-0.647-0.766l-3.593 3.53z"></path>
</symbol>
<symbol id="icon-user-group" viewBox="0 0 20 20">
<path d="M7 8c-2.209 0-4-1.791-4-4s1.791-4 4-4v0c2.209 0 4 1.791 4 4s-1.791 4-4 4v0zM7 9c2.15 0 4.2 0.4 6.1 1.090l-1.1 5.91h-1.25l-0.75 4h-6l-0.75-4h-1.25l-1.1-5.91c1.813-0.684 3.909-1.083 6.097-1.090h0.003zM15.31 9.17c1.32 0.18 2.59 0.48 3.8 0.92l-1.11 5.91h-1.25l-0.75 4h-3.96l0.37-2h1.25l1.65-8.83zM13 0c0.010-0 0.022-0 0.034-0 2.209 0 4 1.791 4 4s-1.791 4-4 4c-0.49 0-0.958-0.088-1.392-0.249l0.028 0.009c0.832-1.017 1.336-2.329 1.336-3.76s-0.504-2.743-1.344-3.771l0.008 0.011c0.43-0.14 0.86-0.24 1.33-0.24z"></path>
</symbol>
<symbol id="icon-education" viewBox="0 0 20 20">
<path d="M3.33 8l6.67 4 10-6-10-6-10 6h10v2h-6.67zM0 8v8l2-2.22v-4.58l-2-1.2zM10 20l-7-4.2v-6l7 4.2 7-4.2v6l-7 4.2z"></path>
</symbol>
<symbol id="icon-user-plus" viewBox="0 0 32 32">
<path d="M12 23c0-4.726 2.996-8.765 7.189-10.319 0.509-1.142 0.811-2.411 0.811-3.681 0-4.971 0-9-6-9s-6 4.029-6 9c0 3.096 1.797 6.191 4 7.432v1.649c-6.784 0.555-12 3.888-12 7.918h12.416c-0.271-0.954-0.416-1.96-0.416-3z"></path>
<path d="M23 14c-4.971 0-9 4.029-9 9s4.029 9 9 9c4.971 0 9-4.029 9-9s-4.029-9-9-9zM28 24h-4v4h-2v-4h-4v-2h4v-4h2v4h4v2z"></path>
</symbol>
<symbol id="icon-earth" viewBox="0 0 32 32">
<path d="M16 0c-8.837 0-16 7.163-16 16s7.163 16 16 16 16-7.163 16-16-7.163-16-16-16zM16 30c-1.967 0-3.84-0.407-5.538-1.139l7.286-8.197c0.163-0.183 0.253-0.419 0.253-0.664v-3c0-0.552-0.448-1-1-1-3.531 0-7.256-3.671-7.293-3.707-0.188-0.188-0.442-0.293-0.707-0.293h-4c-0.552 0-1 0.448-1 1v6c0 0.379 0.214 0.725 0.553 0.894l3.447 1.724v5.871c-3.627-2.53-6-6.732-6-11.489 0-2.147 0.484-4.181 1.348-6h3.652c0.265 0 0.52-0.105 0.707-0.293l4-4c0.188-0.188 0.293-0.442 0.293-0.707v-2.419c1.268-0.377 2.61-0.581 4-0.581 2.2 0 4.281 0.508 6.134 1.412-0.13 0.109-0.256 0.224-0.376 0.345-1.133 1.133-1.757 2.64-1.757 4.243s0.624 3.109 1.757 4.243c1.139 1.139 2.663 1.758 4.239 1.758 0.099 0 0.198-0.002 0.297-0.007 0.432 1.619 1.211 5.833-0.263 11.635-0.014 0.055-0.022 0.109-0.026 0.163-2.541 2.596-6.084 4.208-10.004 4.208z"></path>
</symbol>
<symbol id="icon-user" viewBox="0 0 20 20">
<path d="M5 5c0-2.761 2.239-5 5-5s5 2.239 5 5v0 2c0 2.761-2.239 5-5 5s-5-2.239-5-5v0-2zM0 16.68c2.86-1.685 6.301-2.68 9.974-2.68 0.009 0 0.018 0 0.027 0h-0.001c3.64 0 7.060 0.97 10 2.68v3.32h-20v-3.32z"></path>
</symbol>
<symbol id="icon-envelope" viewBox="0 0 20 20">
<path d="M18 2c1.105 0 2 0.895 2 2v0 12c0 1.105-0.895 2-2 2v0h-16c-1.105 0-2-0.895-2-2v0-12c0-1.1 0.9-2 2-2h16zM13.63 11.1l6.37 4.9v-2l-5.12-3.9 5.12-4.1v-2l-10 8-10-8v2l5.12 4.1-5.12 3.9v2l6.37-4.9 3.63 2.9 3.63-2.9z"></path>
</symbol>
<symbol id="icon-file-pdf" viewBox="0 0 32 32">
<path d="M26.313 18.421c-0.427-0.42-1.372-0.643-2.812-0.662-0.974-0.011-2.147 0.075-3.38 0.248-0.552-0.319-1.122-0.665-1.568-1.083-1.202-1.122-2.205-2.68-2.831-4.394 0.041-0.16 0.075-0.301 0.108-0.444 0 0 0.677-3.846 0.498-5.146-0.025-0.178-0.040-0.23-0.088-0.369l-0.059-0.151c-0.184-0.425-0.545-0.875-1.111-0.85l-0.341-0.011c-0.631 0-1.146 0.323-1.281 0.805-0.411 1.514 0.013 3.778 0.781 6.711l-0.197 0.478c-0.55 1.34-1.238 2.689-1.846 3.88l-0.079 0.155c-0.639 1.251-1.22 2.313-1.745 3.213l-0.543 0.287c-0.040 0.021-0.97 0.513-1.188 0.645-1.852 1.106-3.079 2.361-3.282 3.357-0.065 0.318-0.017 0.725 0.313 0.913l0.525 0.264c0.228 0.114 0.468 0.172 0.714 0.172 1.319 0 2.85-1.643 4.959-5.324 2.435-0.793 5.208-1.452 7.638-1.815 1.852 1.043 4.129 1.767 5.567 1.767 0.255 0 0.475-0.024 0.654-0.072 0.276-0.073 0.508-0.23 0.65-0.444 0.279-0.42 0.335-0.998 0.26-1.59-0.023-0.176-0.163-0.393-0.315-0.541zM6.614 25.439c0.241-0.658 1.192-1.958 2.6-3.111 0.088-0.072 0.306-0.276 0.506-0.466-1.472 2.348-2.458 3.283-3.106 3.577zM14.951 6.24c0.424 0 0.665 1.069 0.685 2.070s-0.214 1.705-0.505 2.225c-0.241-0.77-0.357-1.984-0.357-2.778 0 0-0.018-1.517 0.177-1.517v0zM12.464 19.922c0.295-0.529 0.603-1.086 0.917-1.677 0.765-1.447 1.249-2.58 1.609-3.511 0.716 1.303 1.608 2.41 2.656 3.297 0.131 0.111 0.269 0.222 0.415 0.333-2.132 0.422-3.974 0.935-5.596 1.558v0zM25.903 19.802c-0.13 0.081-0.502 0.128-0.741 0.128-0.772 0-1.727-0.353-3.066-0.927 0.515-0.038 0.986-0.057 1.409-0.057 0.774 0 1.004-0.003 1.761 0.19s0.767 0.585 0.637 0.667v0z"></path>
<path d="M28.681 7.159c-0.694-0.947-1.662-2.053-2.724-3.116s-2.169-2.030-3.116-2.724c-1.612-1.182-2.393-1.319-2.841-1.319h-15.5c-1.378 0-2.5 1.121-2.5 2.5v27c0 1.378 1.121 2.5 2.5 2.5h23c1.378 0 2.5-1.122 2.5-2.5v-19.5c0-0.448-0.137-1.23-1.319-2.841v0zM24.543 5.457c0.959 0.959 1.712 1.825 2.268 2.543h-4.811v-4.811c0.718 0.556 1.584 1.309 2.543 2.268v0zM28 29.5c0 0.271-0.229 0.5-0.5 0.5h-23c-0.271 0-0.5-0.229-0.5-0.5v-27c0-0.271 0.229-0.5 0.5-0.5 0 0 15.499-0 15.5 0v7c0 0.552 0.448 1 1 1h7v19.5z"></path>
</symbol>
<symbol id="icon-pen" viewBox="0 0 32 32">
<path d="M31.818 9.122l-8.939-8.939c-0.292-0.292-0.676-0.226-0.855 0.146l-1.199 2.497 8.35 8.35 2.497-1.199c0.372-0.178 0.438-0.563 0.146-0.855z"></path>
<path d="M19.231 4.231l-8.231 0.686c-0.547 0.068-1.002 0.184-1.159 0.899-0 0.001-0 0.001-0.001 0.002-2.232 10.721-9.84 21.183-9.84 21.183l1.793 1.793 8.5-8.5c-0.187-0.392-0.293-0.83-0.293-1.293 0-1.657 1.343-3 3-3s3 1.343 3 3-1.343 3-3 3c-0.463 0-0.902-0.105-1.293-0.293l-8.5 8.5 1.793 1.793c0 0 10.462-7.608 21.183-9.84 0.001-0 0.001-0 0.002-0.001 0.714-0.157 0.831-0.612 0.898-1.159l0.686-8.231-8.538-8.539z"></path>
</symbol>
<symbol id="icon-currency-dollar" viewBox="0 0 20 20">
<path d="M10 20c-5.523 0-10-4.477-10-10s4.477-10 10-10v0c5.523 0 10 4.477 10 10s-4.477 10-10 10v0zM11 15h1c1.657 0 3-1.343 3-3s-1.343-3-3-3v0h-4.010c-0.552 0-1-0.448-1-1s0.448-1 1-1v0h6.010v-2h-3v-2h-2v2h-1c-1.657 0-3 1.343-3 3s1.343 3 3 3v0h4c0.552 0 1 0.448 1 1s-0.448 1-1 1v0h-6v2h3v2h2v-2z"></path>
</symbol>
<symbol id="icon-pipes" viewBox="0 0 225.57 464.54">
<path class="cls-1" d="M125,201.42c0,30.06,0,60.11,0,90.17,0,21.68,.33,43.37-.17,65.04-.6,25.82-2.26,51.6-4.98,77.3-.96,9.09-1.77,18.2-2.64,27.31-.21,2.24-1.57,3.27-4.39,3.3-2.61,.03-4.12-.97-4.32-3.03-1.59-16.19-3.46-32.36-4.65-48.58-1.38-18.96-2.16-37.97-3.19-56.96-.06-1.17-.06-2.35-.05-3.52,.03-27.62,.1-55.23,.09-82.85,0-47.13-.07-94.25-.09-141.38-.02-40.61,.02-81.22-.07-121.84,0-2.54,.79-3.78,3.12-4.6,6.21-2.18,12.35-2.57,18.54-.04,1.85,.75,2.89,1.67,2.87,4.07-.14,19.65-.08,39.3-.08,58.95,0,45.55,0,91.1,0,136.65h.01Zm-4.69,165.11v-9.57h-15.06v9.57h15.06Z"/><path class="cls-1" d="M66.98,212.07c0-48.54,0-97.08,0-145.61,0-8.84,.06-17.68-.05-26.53-.02-1.9,.66-2.75,2.37-3.42,6.62-2.59,13.18-3.02,19.84-.12,1.66,.72,2.26,1.66,2.25,3.52-.1,33.5-.15,67-.15,100.49,0,37.18,.08,74.37,.1,111.55,.02,30.99,.64,61.99-.2,92.96-.72,26.81-3.05,53.58-4.81,80.36-.66,9.99-1.72,19.95-2.6,29.93-.23,2.61-1.34,3.51-4.41,3.57-3.06,.05-4.34-.79-4.58-3.28-1.23-12.77-2.71-25.53-3.56-38.33-1.59-24.04-2.84-48.11-4.13-72.18-.26-4.92-.07-9.86-.07-14.79,0-39.38,0-78.75,0-118.13Zm19.67,143.81v-9.53h-14.96v9.53h14.96Z"/><path class="cls-1" d="M134.16,216.49c0-24.27,0-48.54,0-72.81,0-34.51,.02-69.02-.05-103.52,0-2.09,.74-3.03,2.6-3.74,6.64-2.51,13.21-2.94,19.84,.06,1.47,.67,2.04,1.48,2.04,3.17-.06,19.96-.04,39.93-.04,59.89,0,80.8,.17,161.6-.12,242.39-.07,18.69-1.43,37.39-2.69,56.05-1.29,19.04-3.21,38.04-4.83,57.06-.13,1.53-.23,2.92-2.15,3.38-2.23,.54-4.36,.58-6.28-.79-.34-.24-.39-.98-.44-1.5-1.42-15.27-3.12-30.51-4.16-45.81-1.47-21.47-2.66-42.96-3.56-64.47-.49-11.72-.15-23.48-.16-35.23,0-17.61,.01-35.21,.01-52.82,0-13.77,0-27.55,0-41.32h-.01Zm4.67,129.83v9.54h15.11v-9.54h-15.11Z"/><path class="cls-1" d="M57.92,224.13c0,36.33,.16,72.66-.09,108.99-.09,13.29-1.07,26.58-1.76,39.86-.53,10.08-1.13,20.16-1.93,30.22-1.05,13.34-2.33,26.66-3.51,39.99-.14,1.56-.21,3.12-.36,4.68-.25,2.52-1.73,3.7-4.61,3.72-2.65,.02-4.18-1.13-4.41-3.6-1.21-12.77-2.59-25.54-3.49-38.34-1.37-19.59-2.44-39.2-3.55-58.8-.37-6.64-.65-13.29-.66-19.94-.06-39.93-.04-79.86-.04-119.79,0-44,.02-87.99-.04-131.99,0-2.08,.67-3.06,2.54-3.77,6.56-2.48,13.06-2.98,19.63-.08,1.59,.7,2.35,1.55,2.34,3.48-.07,31.24-.05,62.48-.05,93.72,0,17.22,0,34.44,0,51.66Zm-19.68,122.76h14.91v-9.47h-14.91v9.47Z"/><path class="cls-1" d="M191.89,230.47c0,36.09,.42,72.19-.16,108.27-.34,21.26-2.1,42.51-3.54,63.75-1.02,15.14-2.58,30.25-3.89,45.37-.22,2.5-1.7,3.72-4.57,3.72-2.68,0-4.12-1.2-4.34-3.6-1.36-14.8-2.93-29.59-4.03-44.42-1.22-16.54-2.68-33.1-2.86-49.66-.59-52.91-.71-105.83-.88-158.75-.12-38.68,0-77.35-.08-116.03,0-2.09,.7-3.09,2.54-3.79,6.55-2.49,13.06-2.93,19.63-.07,1.61,.7,2.31,1.6,2.3,3.51-.07,31.55-.06,63.1-.05,94.65,0,13.61,.03,27.23,.04,40.84,0,5.4,0,10.8,0,16.2-.04,0-.08,0-.12,0Zm-19.67,116.57c4.81,0,9.4,.03,14-.04,.44,0,1.24-.6,1.25-.95,.1-2.85,.06-5.71,.06-8.63h-15.31v9.62Z"/><path class="cls-1" d="M225.45,246.11c0,23.8,.34,47.6-.1,71.39-.38,20.73-1.33,41.46-2.61,62.15-1.23,19.83-3.2,39.61-4.88,59.41-.13,1.48,.13,3.18-1.79,3.96-2.2,.89-4.31,.85-6.26-.45-.52-.34-.82-1.28-.89-1.98-1.1-11.21-2.26-22.42-3.17-33.65-1.01-12.4-1.85-24.81-2.64-37.23-.38-5.93-.5-11.88-.69-17.82-.47-14.23-1.21-28.45-1.3-42.69-.2-31.55-.07-63.09-.07-94.64,0-30.68,.02-61.36-.04-92.05,0-1.83,.48-2.8,2.21-3.49,6.84-2.73,13.61-3.26,20.44,0,1.42,.68,1.83,1.53,1.83,3.07-.06,37.18-.07,74.36-.08,111.55,0,4.15,0,8.29,0,12.44,.02,0,.04,0,.06,0Zm-19.65,82.51v9.55h14.98v-9.55h-14.98Z"/><path class="cls-1" d="M.07,246.09c0-41.18,.01-82.35-.04-123.53,0-1.91,.51-2.89,2.36-3.61,6.79-2.66,13.49-3.1,20.24,.1,1.34,.64,1.9,1.43,1.89,3.04-.09,26.14-.13,52.29-.12,78.43,0,40.93,.15,81.87,0,122.8-.04,11.34-.84,22.68-1.37,34.01-.36,7.74-.73,15.48-1.35,23.2-1.43,17.93-3,35.85-4.52,53.77-.16,1.87-.5,3.75-.43,5.61,.09,2.23-1.14,3-2.96,3.5-3.5,.95-5.85-.59-6.13-4.13-2-25.51-4.27-50.99-5.89-76.52-1.04-16.39-1.41-32.84-1.6-49.27-.26-22.46-.07-44.93-.07-67.4Zm4.66,82.5v9.5h14.94v-9.5H4.73Z"/>
</symbol>
<symbol id="icon-facebook" viewBox="0 0 20 20">
<path d="M17 1h-14c-1.1 0-2 0.9-2 2v14c0 1.101 0.9 2 2 2h7v-7h-2v-2.475h2v-2.050c0-2.164 1.212-3.684 3.766-3.684l1.803 0.002v2.605h-1.197c-0.994 0-1.372 0.746-1.372 1.438v1.69h2.568l-0.568 2.474h-2v7h4c1.1 0 2-0.899 2-2v-14c0-1.1-0.9-2-2-2z"></path>
</symbol>
<symbol id="icon-link" viewBox="0 0 20 20">
<path d="M9.26 13c-0.167-0.286-0.266-0.63-0.266-0.996 0-0.374 0.103-0.724 0.281-1.023l-0.005 0.009c1.549-0.13 2.757-1.419 2.757-2.99 0-1.657-1.343-3-3-3-0.009 0-0.019 0-0.028 0l0.001-0h-4c-1.657 0-3 1.343-3 3s1.343 3 3 3v0h0.080c-0.053 0.301-0.083 0.647-0.083 1s0.030 0.699 0.088 1.036l-0.005-0.036h-0.080c-2.761 0-5-2.239-5-5s2.239-5 5-5v0h4c0.039-0.001 0.084-0.002 0.13-0.002 2.762 0 5.002 2.239 5.002 5.002 0 2.717-2.166 4.927-4.865 5l-0.007 0zM10.74 7c0.167 0.286 0.266 0.63 0.266 0.996 0 0.374-0.103 0.724-0.281 1.023l0.005-0.009c-1.549 0.13-2.757 1.419-2.757 2.99 0 1.657 1.343 3 3 3 0.009 0 0.019-0 0.028-0l-0.001 0h4c1.657 0 3-1.343 3-3s-1.343-3-3-3v0h-0.080c0.053-0.301 0.083-0.647 0.083-1s-0.030-0.699-0.088-1.036l0.005 0.036h0.080c2.761 0 5 2.239 5 5s-2.239 5-5 5v0h-4c-0.039 0.001-0.084 0.002-0.13 0.002-2.762 0-5.002-2.239-5.002-5.002 0-2.717 2.166-4.927 4.865-5l0.007-0z"></path>
</symbol>
<symbol id="icon-cogs" viewBox="0 0 30 28">
<path d="M14 14c0-2.203-1.797-4-4-4s-4 1.797-4 4 1.797 4 4 4 4-1.797 4-4zM26 22c0-1.094-0.906-2-2-2s-2 0.906-2 2c0 1.109 0.906 2 2 2 1.109 0 2-0.906 2-2zM26 6c0-1.094-0.906-2-2-2s-2 0.906-2 2c0 1.109 0.906 2 2 2 1.109 0 2-0.906 2-2zM20 12.578v2.891c0 0.203-0.156 0.438-0.359 0.469l-2.422 0.375c-0.125 0.406-0.297 0.797-0.5 1.188 0.438 0.625 0.906 1.203 1.406 1.797 0.063 0.094 0.109 0.187 0.109 0.313 0 0.109-0.031 0.219-0.109 0.297-0.313 0.422-2.063 2.328-2.516 2.328-0.125 0-0.234-0.047-0.328-0.109l-1.797-1.406c-0.391 0.203-0.781 0.359-1.203 0.484-0.078 0.797-0.156 1.656-0.359 2.422-0.063 0.219-0.25 0.375-0.469 0.375h-2.906c-0.219 0-0.438-0.172-0.469-0.391l-0.359-2.391c-0.406-0.125-0.797-0.297-1.172-0.484l-1.844 1.391c-0.078 0.078-0.203 0.109-0.313 0.109-0.125 0-0.234-0.047-0.328-0.125-0.406-0.375-2.25-2.047-2.25-2.5 0-0.109 0.047-0.203 0.109-0.297 0.453-0.594 0.922-1.172 1.375-1.781-0.219-0.422-0.406-0.844-0.547-1.281l-2.375-0.375c-0.219-0.031-0.375-0.234-0.375-0.453v-2.891c0-0.203 0.156-0.438 0.359-0.469l2.422-0.375c0.125-0.406 0.297-0.797 0.5-1.188-0.438-0.625-0.906-1.203-1.406-1.797-0.063-0.094-0.109-0.203-0.109-0.313s0.031-0.219 0.109-0.313c0.313-0.422 2.063-2.312 2.516-2.312 0.125 0 0.234 0.047 0.328 0.109l1.797 1.406c0.391-0.203 0.781-0.359 1.203-0.5 0.078-0.781 0.156-1.641 0.359-2.406 0.063-0.219 0.25-0.375 0.469-0.375h2.906c0.219 0 0.438 0.172 0.469 0.391l0.359 2.391c0.406 0.125 0.797 0.297 1.172 0.484l1.844-1.391c0.094-0.078 0.203-0.109 0.313-0.109 0.125 0 0.234 0.047 0.328 0.125 0.406 0.375 2.25 2.063 2.25 2.5 0 0.109-0.047 0.203-0.109 0.297-0.453 0.609-0.922 1.172-1.359 1.781 0.203 0.422 0.391 0.844 0.531 1.281l2.375 0.359c0.219 0.047 0.375 0.25 0.375 0.469zM30 20.906v2.188c0 0.234-2.016 0.453-2.328 0.484-0.125 0.297-0.281 0.562-0.469 0.812 0.141 0.313 0.797 1.875 0.797 2.156 0 0.047-0.016 0.078-0.063 0.109-0.187 0.109-1.859 1.109-1.937 1.109-0.203 0-1.375-1.563-1.531-1.797-0.156 0.016-0.313 0.031-0.469 0.031s-0.313-0.016-0.469-0.031c-0.156 0.234-1.328 1.797-1.531 1.797-0.078 0-1.75-1-1.937-1.109-0.047-0.031-0.063-0.078-0.063-0.109 0-0.266 0.656-1.844 0.797-2.156-0.187-0.25-0.344-0.516-0.469-0.812-0.313-0.031-2.328-0.25-2.328-0.484v-2.188c0-0.234 2.016-0.453 2.328-0.484 0.125-0.281 0.281-0.562 0.469-0.812-0.141-0.313-0.797-1.891-0.797-2.156 0-0.031 0.016-0.078 0.063-0.109 0.187-0.094 1.859-1.094 1.937-1.094 0.203 0 1.375 1.547 1.531 1.781 0.156-0.016 0.313-0.031 0.469-0.031s0.313 0.016 0.469 0.031c0.438-0.609 0.906-1.219 1.437-1.75l0.094-0.031c0.078 0 1.75 0.984 1.937 1.094 0.047 0.031 0.063 0.078 0.063 0.109 0 0.281-0.656 1.844-0.797 2.156 0.187 0.25 0.344 0.531 0.469 0.812 0.313 0.031 2.328 0.25 2.328 0.484zM30 4.906v2.187c0 0.234-2.016 0.453-2.328 0.484-0.125 0.297-0.281 0.562-0.469 0.812 0.141 0.313 0.797 1.875 0.797 2.156 0 0.047-0.016 0.078-0.063 0.109-0.187 0.109-1.859 1.109-1.937 1.109-0.203 0-1.375-1.563-1.531-1.797-0.156 0.016-0.313 0.031-0.469 0.031s-0.313-0.016-0.469-0.031c-0.156 0.234-1.328 1.797-1.531 1.797-0.078 0-1.75-1-1.937-1.109-0.047-0.031-0.063-0.078-0.063-0.109 0-0.266 0.656-1.844 0.797-2.156-0.187-0.25-0.344-0.516-0.469-0.812-0.313-0.031-2.328-0.25-2.328-0.484v-2.188c0-0.234 2.016-0.453 2.328-0.484 0.125-0.281 0.281-0.562 0.469-0.812-0.141-0.313-0.797-1.891-0.797-2.156 0-0.031 0.016-0.078 0.063-0.109 0.187-0.094 1.859-1.094 1.937-1.094 0.203 0 1.375 1.547 1.531 1.781 0.156-0.016 0.313-0.031 0.469-0.031s0.313 0.016 0.469 0.031c0.438-0.609 0.906-1.219 1.437-1.75l0.094-0.031c0.078 0 1.75 0.984 1.937 1.094 0.047 0.031 0.063 0.078 0.063 0.109 0 0.281-0.656 1.844-0.797 2.156 0.187 0.25 0.344 0.531 0.469 0.812 0.313 0.031 2.328 0.25 2.328 0.484z"></path>
</symbol>
<symbol id="icon-link" viewBox="0 0 20 20">
<path d="M9.26 13c-0.167-0.286-0.266-0.63-0.266-0.996 0-0.374 0.103-0.724 0.281-1.023l-0.005 0.009c1.549-0.13 2.757-1.419 2.757-2.99 0-1.657-1.343-3-3-3-0.009 0-0.019 0-0.028 0l0.001-0h-4c-1.657 0-3 1.343-3 3s1.343 3 3 3v0h0.080c-0.053 0.301-0.083 0.647-0.083 1s0.030 0.699 0.088 1.036l-0.005-0.036h-0.080c-2.761 0-5-2.239-5-5s2.239-5 5-5v0h4c0.039-0.001 0.084-0.002 0.13-0.002 2.762 0 5.002 2.239 5.002 5.002 0 2.717-2.166 4.927-4.865 5l-0.007 0zM10.74 7c0.167 0.286 0.266 0.63 0.266 0.996 0 0.374-0.103 0.724-0.281 1.023l0.005-0.009c-1.549 0.13-2.757 1.419-2.757 2.99 0 1.657 1.343 3 3 3 0.009 0 0.019-0 0.028-0l-0.001 0h4c1.657 0 3-1.343 3-3s-1.343-3-3-3v0h-0.080c0.053-0.301 0.083-0.647 0.083-1s-0.030-0.699-0.088-1.036l0.005 0.036h0.080c2.761 0 5 2.239 5 5s-2.239 5-5 5v0h-4c-0.039 0.001-0.084 0.002-0.13 0.002-2.762 0-5.002-2.239-5.002-5.002 0-2.717 2.166-4.927 4.865-5l0.007-0z"></path>
<symbol id="icon-instagram" viewBox="0 0 24 28">
<path d="M16 14c0-2.203-1.797-4-4-4s-4 1.797-4 4 1.797 4 4 4 4-1.797 4-4zM18.156 14c0 3.406-2.75 6.156-6.156 6.156s-6.156-2.75-6.156-6.156 2.75-6.156 6.156-6.156 6.156 2.75 6.156 6.156zM19.844 7.594c0 0.797-0.641 1.437-1.437 1.437s-1.437-0.641-1.437-1.437 0.641-1.437 1.437-1.437 1.437 0.641 1.437 1.437zM12 4.156c-1.75 0-5.5-0.141-7.078 0.484-0.547 0.219-0.953 0.484-1.375 0.906s-0.688 0.828-0.906 1.375c-0.625 1.578-0.484 5.328-0.484 7.078s-0.141 5.5 0.484 7.078c0.219 0.547 0.484 0.953 0.906 1.375s0.828 0.688 1.375 0.906c1.578 0.625 5.328 0.484 7.078 0.484s5.5 0.141 7.078-0.484c0.547-0.219 0.953-0.484 1.375-0.906s0.688-0.828 0.906-1.375c0.625-1.578 0.484-5.328 0.484-7.078s0.141-5.5-0.484-7.078c-0.219-0.547-0.484-0.953-0.906-1.375s-0.828-0.688-1.375-0.906c-1.578-0.625-5.328-0.484-7.078-0.484zM24 14c0 1.656 0.016 3.297-0.078 4.953-0.094 1.922-0.531 3.625-1.937 5.031s-3.109 1.844-5.031 1.937c-1.656 0.094-3.297 0.078-4.953 0.078s-3.297 0.016-4.953-0.078c-1.922-0.094-3.625-0.531-5.031-1.937s-1.844-3.109-1.937-5.031c-0.094-1.656-0.078-3.297-0.078-4.953s-0.016-3.297 0.078-4.953c0.094-1.922 0.531-3.625 1.937-5.031s3.109-1.844 5.031-1.937c1.656-0.094 3.297-0.078 4.953-0.078s3.297-0.016 4.953 0.078c1.922 0.094 3.625 0.531 5.031 1.937s1.844 3.109 1.937 5.031c0.094 1.656 0.078 3.297 0.078 4.953z"></path>
</symbol>
<symbol id="icon-magnifying-glass" viewBox="0 0 20 20">
<path d="M17.545 15.467l-3.779-3.779c0.57-0.935 0.898-2.035 0.898-3.21 0-3.417-2.961-6.377-6.378-6.377s-6.186 2.769-6.186 6.186c0 3.416 2.961 6.377 6.377 6.377 1.137 0 2.2-0.309 3.115-0.844l3.799 3.801c0.372 0.371 0.975 0.371 1.346 0l0.943-0.943c0.371-0.371 0.236-0.84-0.135-1.211zM4.004 8.287c0-2.366 1.917-4.283 4.282-4.283s4.474 2.107 4.474 4.474c0 2.365-1.918 4.283-4.283 4.283s-4.473-2.109-4.473-4.474z"></path>
</symbol>

</defs>
</svg>